<svg version="1.1" xmlns="http://www.w3.org/2000/svg" xmlns:xlink="http://www.w3.org/1999/xlink" x="0px" y="0px" viewBox="0 0 247.8 34.2" enable-background="new 0 0 247.8 34.2" xml:space="preserve">
<g>
  <defs>
    <rect id="SVGID_1_" y="0" width="247.8" height="34.2"></rect>
  </defs>
  <clipPath id="SVGID_2_">
    <use xlink:href="#SVGID_1_" overflow="visible"></use>
  </clipPath>
  <path clip-path="url(#SVGID_2_)" fill="#971B1E" d="M10.8,25.8c0.6-0.1,1.2-0.2,1.7-0.4c0.6-0.2,1.1-0.4,1.6-0.6
    c0.5-0.2,1-0.5,1.5-0.8c0.5-0.3,0.9-0.6,1.4-1c0.4-0.4,0.9-0.8,1.2-1.2c0.4-0.4,0.7-0.9,1.1-1.3c0.3-0.5,0.6-1,0.9-1.5
    c0.3-0.5,0.5-1,0.7-1.6c0.2-0.5,0.4-1.1,0.5-1.7c0.1-0.6,0.2-1.2,0.3-1.8c0-0.3,0-0.6,0-0.9c0-0.3,0-0.6,0-0.9
    c-0.1,2-0.5,4-1.6,5.8c-0.6,1-1.4,1.9-2.3,2.7C16,22.2,13.5,23,11,23c-1,0-2-0.1-3-0.4c-2.4-0.7-4.4-2.5-5.6-4.9
    c-1.3-2.8-1.5-6.1-0.3-8.9c0.8-2,2.3-3.8,4.1-5l0-0.1C3,5.2,0.8,8.2,0.2,11.7c-0.6,3.3,0.3,6.8,2.4,9.8c1.6,2.2,3.6,3.7,6,4.5
    c0.1,0,0.3,0,0.4,0C9.6,26,10.2,25.9,10.8,25.8"></path>
  <path clip-path="url(#SVGID_2_)" fill="#E02926" d="M28,8.3c-1-4.9-4.9-8.3-9.6-8.3c-1,0-1.9,0.1-2.8,0.4c-0.9,0.3-1.7,0.7-2.5,1.2
    c-0.8,0.5-1.4,1.2-2,1.9c-0.4,0.5-0.8,1.1-1.1,1.7c0,0,0-0.1,0-0.1C10,5.3,9.9,5.4,9.9,5.6c0,0,0,0.1,0,0.1c0,0,0-0.1,0-0.1
    C9.8,5.7,9.7,5.9,9.7,6c0,0,0,0,0,0c0,0,0,0.1-0.1,0.1c0,0,0,0,0-0.1C9.6,6.2,9.5,6.4,9.5,6.6c0,0,0,0,0-0.1
    C9.4,6.8,9.3,7.1,9.2,7.4c0,0,0,0,0-0.1c0,0.2-0.1,0.4-0.1,0.6c0,0,0,0,0,0C9.1,8.1,9,8.3,9,8.4c0,0,0,0,0,0c0,0.1,0,0.1,0,0.2
    c0,0,0.5-0.8,0.9-1.1c0.3-0.3,0.6-0.6,1-0.9c1.9-1.5,4.2-2.3,6.8-2.3c5,0,9.3,3.4,10.6,7.9c0-0.4,0-0.7,0-1.1
    C28.3,10.2,28.2,9.2,28,8.3"></path>
  <path clip-path="url(#SVGID_2_)" fill="#E02926" d="M9.1,8C9.1,8,9.1,8,9.1,8C9.1,8,9.1,8,9.1,8"></path>
  <path clip-path="url(#SVGID_2_)" fill="#E02926" d="M9.2,7.5C9.2,7.5,9.2,7.5,9.2,7.5C9.2,7.5,9.2,7.5,9.2,7.5"></path>
  <path clip-path="url(#SVGID_2_)" fill="#E02926" d="M9.5,6.5C9.5,6.5,9.5,6.5,9.5,6.5C9.5,6.5,9.5,6.5,9.5,6.5"></path>
  <path clip-path="url(#SVGID_2_)" fill="#E02926" d="M9.3,7C9.3,7,9.3,7,9.3,7C9.3,7,9.3,7,9.3,7"></path>
  <path clip-path="url(#SVGID_2_)" fill="#BC2026" d="M28.3,12.4c0-0.2,0-0.4,0-0.6C28.3,12,28.3,12.1,28.3,12.4
    c-1.4-4.7-5.6-8-10.7-8c-2.6,0-4.9,0.9-6.8,2.3c1.1-0.8,2.5-1.3,4-1.3c1.3,0,2.6,0.4,3.7,1.1c1.6,1,2.8,2.8,3.1,4.7
    c0.1,0.6,0.1,1.3,0.1,1.9c0,0.3,0,0.6,0,0.9c-0.1,0.6-0.1,1.2-0.3,1.8c-0.1,0.6-0.3,1.1-0.5,1.7c-0.2,0.5-0.4,1.1-0.7,1.6
    c-0.3,0.5-0.6,1-0.9,1.5c-0.3,0.5-0.7,0.9-1.1,1.3c-0.4,0.4-0.8,0.8-1.2,1.2c-0.4,0.4-0.9,0.7-1.4,1c-0.5,0.3-1,0.6-1.5,0.8
    c-0.5,0.2-1.1,0.5-1.6,0.6c-0.6,0.2-1.1,0.3-1.7,0.4c-0.6,0.1-1.2,0.2-1.8,0.2c-0.1,0-0.3,0-0.4,0c0.6,0.2,1.1,0.3,1.7,0.4
    c0.8,0.1,1.6,0.2,2.4,0.2c0.1,0,0.2,0,0.3,0C21,26.6,27.7,20.3,28.3,12.4C28.3,12.3,28.3,12.4,28.3,12.4"></path>
  <path clip-path="url(#SVGID_2_)" fill="#E02926" d="M14.6,8.4c-2.4,0.1-4.4,1.3-5.6,3.2c0,0,0,0,0,0.1v22.4c0,0.1,0.1,0.1,0.1,0.1
    c2.4-0.1,4.4-1.3,5.6-3.2c0,0,0,0,0-0.1V8.5C14.7,8.5,14.7,8.4,14.6,8.4"></path>
  <path clip-path="url(#SVGID_2_)" fill="#FFFFFF" d="M61.1,13.5c0,3.8-2.3,7.3-7.2,7.3s-7.2-3.6-7.2-7.3c0-4.3,3-7.4,7.3-7.4
    C58.7,6.1,61.1,9.6,61.1,13.5 M53.8,18.7c3.5,0,5-2.5,5-5.2c0-2.6-1.5-5.3-5-5.4c-3.3,0-5,2.3-5,5.4C48.9,16,50.3,18.7,53.8,18.7"></path>
  <path clip-path="url(#SVGID_2_)" fill="#FFFFFF" d="M70.3,6.3c2.7,0,4.8,1.2,4.8,4c0,1.2-0.6,2.3-2,2.8c1.7,0.5,2.4,2.2,2.4,3.3
    c0,3.1-2.5,4-5.3,4h-6.5V6.3H70.3z M66,12.2h4.3c1.7,0,2.5-0.7,2.5-1.8c0-1-0.9-2-2.6-2H66V12.2z M66,18.4h4.2c1.3,0,3-0.4,3-2
    c0-1.5-1.7-2.2-3-2.2H66V18.4z"></path>
  <path clip-path="url(#SVGID_2_)" fill="#FFFFFF" d="M89.5,6.3v8.3c0,3.6-2.3,6.1-6.1,6.1c-3.5,0-6-2.2-6-6h2.2
    c0,2.5,1.4,3.9,3.8,3.9c2.5,0,3.8-1.7,3.8-4V6.3H89.5z"></path>
  <polygon clip-path="url(#SVGID_2_)" fill="#FFFFFF" points="103.3,20.5 92.9,20.5 92.9,6.3 103.3,6.3 103.3,8.5 95.2,8.5 
    95.2,12.4 103,12.4 103,14.5 95.2,14.5 95.2,18.3 103.3,18.3  "></polygon>
  <path clip-path="url(#SVGID_2_)" fill="#FFFFFF" d="M118.3,18.7c-1.5,1.4-3.3,2.1-5.3,2.1c-5.1,0-7.4-3.5-7.5-7.3
    c0-3.7,2.4-7.4,7.5-7.4c1.9,0,3.7,0.7,5.2,2.1l-1.5,1.5c-1-1-2.3-1.5-3.7-1.5c-3.6,0-5.2,2.6-5.2,5.3c0,2.6,1.6,5.2,5.2,5.2
    c1.3,0,2.8-0.5,3.8-1.5L118.3,18.7z"></path>
  <polygon clip-path="url(#SVGID_2_)" fill="#FFFFFF" points="124.2,8.4 119.5,8.4 119.5,6.3 131.1,6.3 131.1,8.4 126.4,8.4 
    126.4,20.5 124.2,20.5   "></polygon>
  <path clip-path="url(#SVGID_2_)" fill="#FFFFFF" d="M139.9,16.1v4.3h-2.3V6.3c2.2,0,4.4,0,6.6,0c6.8,0,6.8,9.8,0,9.8H139.9z
     M139.9,14.1h4.3c3.7,0,3.7-5.7,0-5.7h-4.3V14.1z"></path>
  <path clip-path="url(#SVGID_2_)" fill="#FFFFFF" d="M160.4,17.5h-7.7l-1.3,3H149l6.3-14.2h2.5l6.3,14.2h-2.4L160.4,17.5z
     M156.6,8.7l-3,6.7h6L156.6,8.7z"></path>
  <path clip-path="url(#SVGID_2_)" fill="#FFFFFF" d="M178.5,20.5h-2.6l-4.3-4.9h-3v4.9h-2.3V6.3c2.2,0,4.4,0,6.6,0
    c3.3,0,5,2.2,5,4.6c0,2-1.1,4-3.8,4.4l4.2,4.7L178.5,20.5z M168.5,8.4v5.1h4.3c1.9,0,2.7-1.2,2.7-2.5c0-1.3-0.8-2.6-2.7-2.6H168.5z
    "></path>
  <polygon clip-path="url(#SVGID_2_)" fill="#FFFFFF" points="184.3,8.4 179.6,8.4 179.6,6.3 191.2,6.3 191.2,8.4 186.5,8.4 
    186.5,20.5 184.3,20.5   "></polygon>
  <polygon clip-path="url(#SVGID_2_)" fill="#FFFFFF" points="203.2,16.4 203.2,6.3 205.5,6.3 205.5,20.5 203.8,20.5 195.8,10.5 
    195.8,20.5 193.5,20.5 193.5,6.3 195.2,6.3   "></polygon>
  <polygon clip-path="url(#SVGID_2_)" fill="#FFFFFF" points="219.5,20.5 209.1,20.5 209.1,6.3 219.5,6.3 219.5,8.5 211.3,8.5 
    211.3,12.4 219.1,12.4 219.1,14.5 211.3,14.5 211.3,18.3 219.5,18.3   "></polygon>
  <path clip-path="url(#SVGID_2_)" fill="#FFFFFF" d="M234.7,20.5H232l-4.3-4.9h-3v4.9h-2.3V6.3c2.2,0,4.4,0,6.6,0c3.3,0,5,2.2,5,4.6
    c0,2-1.1,4-3.8,4.4l4.2,4.7L234.7,20.5z M224.7,8.4v5.1h4.3c1.9,0,2.7-1.2,2.7-2.5c0-1.3-0.8-2.6-2.7-2.6H224.7z"></path>
  <path clip-path="url(#SVGID_2_)" fill="#FFFFFF" d="M245.5,9.5c-0.7-1-2-1.6-3.5-1.6c-1.9,0-3.3,0.8-3.3,2.1c0,1.4,1.6,1.8,3.4,2
    c2.9,0.4,5.7,1.2,5.7,4.4c0,3.2-2.9,4.4-5.9,4.4c-2.7,0-4.8-0.8-6.1-3.2l1.7-1.1c1,1.7,2.8,2.3,4.4,2.3c1.7,0,3.6-0.6,3.6-2.3
    c0-1.5-1.6-2.1-3.6-2.3c-2.8-0.4-5.5-1.1-5.5-4.1c0-2.9,2.9-4.1,5.5-4.1c2,0,4.1,0.5,5.3,2.4L245.5,9.5z"></path>
</g>
</svg>