<svg id="Layer_1" data-name="Layer 1" xmlns="http://www.w3.org/2000/svg" viewBox="0 0 180.7 180.7"><defs><style>.cls-1,.cls-2{fill:#fff;}.cls-1{stroke:#bbbbbb;stroke-miterlimit:10;stroke-width:0.32px;}.cls-3{fill:#bbbbbb;}</style></defs><title>pattern</title><polygon class="cls-1" points="180.86 -45.16 226.02 0 226.02 -90.32 180.86 -45.16"/><polygon class="cls-1" points="180.86 -45.16 90.54 -45.16 135.7 0 180.86 -45.16"/><polygon class="cls-1" points="45.38 -90.32 45.38 0 90.54 -45.16 45.38 -90.32"/><polygon class="cls-1" points="0.23 -45.16 45.38 0 45.38 -90.32 0.23 -45.16"/><polygon class="cls-1" points="0.23 0 45.38 0 0.23 -45.16 0.23 0"/><polygon class="cls-2" points="135.7 0 180.86 0 180.86 -45.16 135.7 0"/><path class="cls-3" d="M181,.16h-45.7l.27-.27L181-45.54ZM136.09-.16H180.7V-44.77Z"/><polygon class="cls-2" points="90.54 -45.16 90.54 0 135.7 0 90.54 -45.16"/><path class="cls-3" d="M136.09.16H90.38v-45.7l.27.27ZM90.7-.16h44.61L90.7-44.77Z"/><polygon class="cls-2" points="45.38 0 90.54 0 90.54 -45.16 45.38 0"/><path class="cls-3" d="M90.7.16H45l.27-.27L90.7-45.54ZM45.77-.16H90.38V-44.77Z"/><polygon class="cls-1" points="180.86 225.84 226.02 271 226.02 180.68 180.86 225.84"/><polygon class="cls-1" points="0.23 45.21 45.38 0.05 0.23 0.05 0.23 45.21"/><polygon class="cls-1" points="135.7 180.68 135.7 271 180.86 225.84 135.7 180.68"/><polygon class="cls-1" points="90.54 225.84 135.7 271 135.7 180.68 90.54 225.84"/><polygon class="cls-1" points="135.7 180.68 180.86 225.84 180.86 135.52 135.7 180.68"/><polygon class="cls-1" points="180.86 135.52 226.02 180.68 226.02 90.36 180.86 135.52"/><polygon class="cls-1" points="0.23 225.84 45.38 271 45.38 180.68 0.23 225.84"/><polygon class="cls-1" points="45.38 180.68 45.38 271 90.54 225.84 45.38 180.68"/><polygon class="cls-1" points="45.38 180.68 90.54 225.84 90.54 135.52 45.38 180.68"/><polygon class="cls-1" points="90.54 135.52 90.54 225.84 135.7 180.68 90.54 135.52"/><polygon class="cls-1" points="90.54 135.52 135.7 180.68 135.7 90.36 90.54 135.52"/><polygon class="cls-1" points="135.7 90.36 135.7 180.68 180.86 135.52 135.7 90.36"/><polygon class="cls-1" points="135.7 90.36 180.86 135.52 180.86 45.21 135.7 90.36"/><polygon class="cls-1" points="180.86 45.21 226.02 90.36 226.02 0.05 180.86 45.21"/><polygon class="cls-1" points="0.23 225.84 45.38 180.68 0.23 135.52 0.23 225.84"/><polygon class="cls-1" points="45.38 90.36 45.38 180.68 90.54 135.52 45.38 90.36"/><polygon class="cls-1" points="0.23 135.52 45.38 180.68 45.38 90.36 0.23 135.52"/><polygon class="cls-1" points="45.38 90.36 90.54 135.52 90.54 45.21 45.38 90.36"/><polygon class="cls-1" points="90.54 45.21 90.54 135.52 135.7 90.36 90.54 45.21"/><polygon class="cls-1" points="135.7 0.05 90.54 45.21 180.86 45.21 135.7 0.05"/><polygon class="cls-1" points="180.86 45.21 90.54 45.21 135.7 90.36 180.86 45.21"/><polygon class="cls-1" points="135.7 0.05 180.86 45.21 180.86 0.05 135.7 0.05"/><polygon class="cls-1" points="0.23 135.52 45.38 90.36 0.23 45.21 0.23 135.52"/><polygon class="cls-1" points="0.23 45.21 45.38 90.36 45.38 0.05 0.23 45.21"/><polygon class="cls-1" points="45.38 0.05 45.38 90.36 90.54 45.21 45.38 0.05"/><polygon class="cls-1" points="90.54 0.05 90.54 45.21 135.7 0.05 90.54 0.05"/><polygon class="cls-1" points="45.38 0.05 90.54 45.21 90.54 0.05 45.38 0.05"/></svg>